<?xml version="1.0" encoding="UTF-8" standalone="no"?>
<svg
   t="1724222911011"
   class="icon"
   viewBox="0 0 1024 1024"
   version="1.1"
   p-id="8196"
   width="200"
   height="200"
   id="svg1"
   sodipodi:docname="chat.svg"
   inkscape:version="1.3.2 (091e20e, 2023-11-25, custom)"
   xmlns:inkscape="http://www.inkscape.org/namespaces/inkscape"
   xmlns:sodipodi="http://sodipodi.sourceforge.net/DTD/sodipodi-0.dtd"
   xmlns="http://www.w3.org/2000/svg"
   xmlns:svg="http://www.w3.org/2000/svg">
  <defs
     id="defs1" />
  <sodipodi:namedview
     id="namedview1"
     pagecolor="#ffffff"
     bordercolor="#000000"
     borderopacity="0.25"
     inkscape:showpageshadow="2"
     inkscape:pageopacity="0.0"
     inkscape:pagecheckerboard="0"
     inkscape:deskcolor="#d1d1d1"
     inkscape:zoom="5.995"
     inkscape:cx="99.916597"
     inkscape:cy="113.34445"
     inkscape:window-width="2560"
     inkscape:window-height="1494"
     inkscape:window-x="-11"
     inkscape:window-y="-11"
     inkscape:window-maximized="1"
     inkscape:current-layer="svg1" />
  <path
     d="M 193.76667,825.64 C 97.473333,744.9 42.666667,631.68 42.666667,512 42.621793,454.33424 55.32963,397.37208 79.88,345.19333 103.65333,294.34 137.64,248.70667 180.9,209.56667 224,170.56667 274.17333,139.96 330,118.59333 387.66667,96.526667 448.90667,85.333333 512,85.333333 c 63.09333,0 124.33333,11.193333 182,33.259997 55.82,21.36667 106,52 149.09333,90.97334 43.26,39.14 77.24667,84.77333 101.02,135.62666 49.61742,105.66985 49.61742,227.94349 0,333.61334 -23.77333,50.85333 -57.76,96.48666 -101.02,135.62666 C 799.98,853.43333 749.82,884.04 694,905.40667 c -57.66667,22.06666 -118.90667,33.26 -182,33.26 -51.12077,0.0813 -155.76928,-21.17238 -150.83333,-22.51334 L 164.22855,961.82954 Z M 512,128 C 276.73333,128 85.333333,300.26 85.333333,512 c 0,112.79333 54.833337,219.46 150.439997,292.66667 0,0 -18.04755,99.60259 -24.20419,108.94689 L 365.24,872.72667 C 412.60706,888.25621 462.1523,896.11314 512,896 747.26667,896 938.66667,723.74 938.66667,512 938.66667,300.26 747.26667,128 512,128 Z"
     fill="#000000"
     p-id="8197"
     id="path1"
     sodipodi:nodetypes="cccccsccccccccccssccccss" />
</svg>
