<?xml version="1.0" encoding="UTF-8" standalone="no"?>
<svg
   t="1724222832365"
   class="icon"
   viewBox="0 0 1024 1024"
   version="1.1"
   p-id="6142"
   width="200"
   height="200"
   id="svg4"
   sodipodi:docname="contacts2.svg"
   inkscape:version="1.3.2 (091e20e, 2023-11-25, custom)"
   xmlns:inkscape="http://www.inkscape.org/namespaces/inkscape"
   xmlns:sodipodi="http://sodipodi.sourceforge.net/DTD/sodipodi-0.dtd"
   xmlns="http://www.w3.org/2000/svg"
   xmlns:svg="http://www.w3.org/2000/svg">
  <defs
     id="defs4" />
  <sodipodi:namedview
     id="namedview4"
     pagecolor="#ffffff"
     bordercolor="#000000"
     borderopacity="0.25"
     inkscape:showpageshadow="2"
     inkscape:pageopacity="0.0"
     inkscape:pagecheckerboard="0"
     inkscape:deskcolor="#d1d1d1"
     inkscape:zoom="5.995"
     inkscape:cx="100.0834"
     inkscape:cy="100"
     inkscape:window-width="2560"
     inkscape:window-height="1494"
     inkscape:window-x="-11"
     inkscape:window-y="-11"
     inkscape:window-maximized="1"
     inkscape:current-layer="svg4" />
  <path
     d="m 583.1433,604.80939 c 0,-22.89097 46.73674,-55.02591 75.69589,-102.03389 21.7294,-33.16515 19.48165,-92.97724 19.48165,-92.97724 V 285.26383 c 0,-198.472748 -187.65366,-207.553725 -207.55859,-207.553725 -19.90493,0 -207.55494,9.080977 -207.55494,207.553725 v 124.53443 c 0,0 -5.68018,46.26117 21.0519,92.97724 29.11606,47.0092 76.10944,79.14292 76.10944,102.03389 C 347.14492,697.24172 143.69746,769.06853 81.705741,827.68255 19.712806,886.28441 36.761836,949.44257 36.761836,949.44257 H 904.77483 c 0,0 16.95172,-63.15694 -44.69457,-121.76002 C 798.42303,769.06974 596.29405,697.24172 583.1433,604.80939 Z"
     fill="#000000"
     p-id="6143"
     id="path1"
     sodipodi:nodetypes="cccssscccccccc"
     style="fill:#00d40d;fill-opacity:1" />
  <path
     d="M968.610472 399.430424 740.299182 399.430424c-11.461298 0-20.75513 9.297481-20.75513 20.756346l0 20.757562c0 11.464947 9.292615 20.753913 20.75513 20.753913l228.31129 0c11.46373 0 20.757562-9.288966 20.757562-20.753913L989.368034 420.18677C989.366818 408.727905 980.074202 399.430424 968.610472 399.430424L968.610472 399.430424z"
     fill="#000000"
     p-id="6144"
     id="path2"
     style="fill:#00d40d;fill-opacity:1" />
  <path
     d="M968.610472 544.716331 823.320916 544.716331c-11.46373 0-20.75513 9.298697-20.75513 20.758778l0 20.758778c0 11.46373 9.291399 20.752697 20.75513 20.752697l145.289556 0c11.46373 0 20.756346-9.288966 20.756346-20.752697L989.366818 565.47511C989.366818 554.015028 980.074202 544.716331 968.610472 544.716331L968.610472 544.716331z"
     fill="#000000"
     p-id="6145"
     id="path3"
     style="fill:#00d40d;fill-opacity:1" />
  <path
     d="M968.610472 690.009536l-83.021734 0c-11.46373 0-20.756346 9.295048-20.756346 20.758778l0 20.753913c0 11.46373 9.292615 20.751481 20.756346 20.751481l83.021734 0c11.46373 0 20.756346-9.28775 20.756346-20.751481l0-20.753913C989.366818 699.303367 980.074202 690.009536 968.610472 690.009536L968.610472 690.009536z"
     fill="#000000"
     p-id="6146"
     id="path4"
     style="fill:#00d40d;fill-opacity:1" />
</svg>
