<?xml version="1.0" standalone="no"?><!DOCTYPE svg PUBLIC "-//W3C//DTD SVG 1.1//EN" "http://www.w3.org/Graphics/SVG/1.1/DTD/svg11.dtd"><svg t="1724222832365" class="icon" viewBox="0 0 1024 1024" version="1.1" xmlns="http://www.w3.org/2000/svg" p-id="6142" xmlns:xlink="http://www.w3.org/1999/xlink" width="200" height="200"><path d="M583.143297 604.809388c0-22.890972 46.736747-55.025906 75.695894-102.03389 21.729395-33.16515 19.481652-92.977239 19.481652-92.977239s0-58.457119 0-124.534426c0-198.472751-187.653665-207.553728-207.558593-207.553728S263.207305 86.791082 263.207305 285.263833c0 66.077307 0 124.534426 0 124.534426s-5.680172 46.26117 21.051909 92.977239c29.116051 47.009201 76.109439 79.142919 76.109439 102.03389C347.144922 697.24172 143.697459 769.068529 81.705741 827.682552c-61.992935 58.60186-44.943905 121.760021-44.943905 121.760021l868.01299 0c0 0 16.951725-63.156944-44.694561-121.760021C798.423032 769.069745 596.29405 697.24172 583.143297 604.809388L583.143297 604.809388zM78.695371 907.932314c3.836245-14.330575 12.569357-32.161693 31.530428-50.086467 17.670565-16.708463 54.029747-37.475756 92.522339-59.463008 87.725209-50.108361 187.153761-106.90035 198.711148-187.693803l0.418411-2.924011 0-2.954419c0-28.790079-19.813705-50.27013-42.756978-75.138823-13.216434-14.32571-28.178275-30.542783-39.184673-48.130639-18.687401-33.139607-15.521344-66.681814-15.527425-66.681814l0.308943-2.520196 0-2.540874L304.717564 285.263833c0-161.383782 149.047956-166.043469 166.043469-166.043469 16.996729 0 166.047118 4.659687 166.047118 166.043469l0 124.534426 0.003649 0.782088 0.021894 0.684783c0.645861 19.507195-2.875359 53.739049-12.717747 68.761705l-0.317457 0.484092-0.302861 0.492606c-10.982071 17.827469-26.055813 34.256181-39.354956 48.749742-22.809479 24.861395-42.50885 46.330499-42.50885 75.056114l0 2.937391 0.413546 2.909416c11.490489 80.759396 110.335212 137.573279 197.545922 187.697452 38.225003 21.97144 74.331193 42.722921 91.888641 59.414356 18.739702 17.81409 27.387673 35.731566 31.208106 50.161879L78.695371 907.929882 78.695371 907.932314 78.695371 907.932314z" fill="#000000" p-id="6143"></path><path d="M968.610472 399.430424 740.299182 399.430424c-11.461298 0-20.75513 9.297481-20.75513 20.756346l0 20.757562c0 11.464947 9.292615 20.753913 20.75513 20.753913l228.31129 0c11.46373 0 20.757562-9.288966 20.757562-20.753913L989.368034 420.18677C989.366818 408.727905 980.074202 399.430424 968.610472 399.430424L968.610472 399.430424z" fill="#000000" p-id="6144"></path><path d="M968.610472 544.716331 823.320916 544.716331c-11.46373 0-20.75513 9.298697-20.75513 20.758778l0 20.758778c0 11.46373 9.291399 20.752697 20.75513 20.752697l145.289556 0c11.46373 0 20.756346-9.288966 20.756346-20.752697L989.366818 565.47511C989.366818 554.015028 980.074202 544.716331 968.610472 544.716331L968.610472 544.716331z" fill="#000000" p-id="6145"></path><path d="M968.610472 690.009536l-83.021734 0c-11.46373 0-20.756346 9.295048-20.756346 20.758778l0 20.753913c0 11.46373 9.292615 20.751481 20.756346 20.751481l83.021734 0c11.46373 0 20.756346-9.28775 20.756346-20.751481l0-20.753913C989.366818 699.303367 980.074202 690.009536 968.610472 690.009536L968.610472 690.009536z" fill="#000000" p-id="6146"></path></svg>