<?xml version="1.0" encoding="UTF-8" standalone="no"?>
<svg
   t="1724223248991"
   class="icon"
   viewBox="0 0 1024 1024"
   version="1.1"
   p-id="6133"
   width="200"
   height="200"
   id="svg3"
   sodipodi:docname="discovery2.svg"
   inkscape:version="1.3.2 (091e20e, 2023-11-25, custom)"
   xmlns:inkscape="http://www.inkscape.org/namespaces/inkscape"
   xmlns:sodipodi="http://sodipodi.sourceforge.net/DTD/sodipodi-0.dtd"
   xmlns="http://www.w3.org/2000/svg"
   xmlns:svg="http://www.w3.org/2000/svg">
  <defs
     id="defs3" />
  <sodipodi:namedview
     id="namedview3"
     pagecolor="#ffffff"
     bordercolor="#000000"
     borderopacity="0.25"
     inkscape:showpageshadow="2"
     inkscape:pageopacity="0.0"
     inkscape:pagecheckerboard="0"
     inkscape:deskcolor="#d1d1d1"
     inkscape:zoom="5.9074495"
     inkscape:cx="101.73595"
     inkscape:cy="102.32842"
     inkscape:window-width="2560"
     inkscape:window-height="1494"
     inkscape:window-x="-11"
     inkscape:window-y="-11"
     inkscape:window-maximized="1"
     inkscape:current-layer="svg3" />
  <path
     d="m 514.9,68.6 c -245.5,0 -445.3,199.8 -445.3,445.3 0,245.5 199.8,445.3 445.3,445.3 245.5,0 445.3,-199.8 445.3,-445.3 C 960.2,268.3 760.5,68.6 514.9,68.6 Z"
     fill="#000000"
     p-id="6134"
     id="path1"
     style="fill:#00d40d;fill-opacity:1"
     sodipodi:nodetypes="sssss" />
  <path
     d="M 702.5,304.1 432.1,422.4 c -3.9,1.7 -7,4.8 -8.7,8.7 L 305.2,701.5 c -2.3,5.3 -1.9,11.1 1.3,15.9 3.2,4.8 8.4,7.7 14,7.7 2.3,0 4.6,-0.5 6.8,-1.4 L 597.7,605.4 c 3.9,-1.7 7,-4.8 8.7,-8.7 L 724.7,326.3 c 2.3,-5.3 1.9,-11.1 -1.3,-15.9 -4.5,-6.8 -13.3,-9.6 -20.9,-6.3 z m 1.21914,-4.70392 -270.4,118.3 c -3.9,1.7 -7,4.8 -8.7,8.7 l -118.2,270.4 c -2.3,5.3 -1.9,11.1 1.3,15.9 3.2,4.8 8.4,7.7 14,7.7 2.3,0 4.6,-0.5 6.8,-1.4 l 270.4,-118.3 c 3.9,-1.7 7,-4.8 8.7,-8.7 l 118.3,-270.4 c 2.3,-5.3 1.9,-11.1 -1.3,-15.9 -4.5,-6.8 -13.3,-9.6 -20.9,-6.3 z"
     fill="#000000"
     p-id="6135"
     id="path2"
     sodipodi:nodetypes="ccccssccccccccccsscccccc"
     style="fill:#ffffff;fill-opacity:1" />
</svg>
