<?xml version="1.0" encoding="UTF-8" standalone="no"?>
<svg
   t="1724223248991"
   class="icon"
   viewBox="0 0 1024 1024"
   version="1.1"
   p-id="6133"
   width="200"
   height="200"
   id="svg3"
   sodipodi:docname="discovery.svg"
   inkscape:version="1.3.2 (091e20e, 2023-11-25, custom)"
   xmlns:inkscape="http://www.inkscape.org/namespaces/inkscape"
   xmlns:sodipodi="http://sodipodi.sourceforge.net/DTD/sodipodi-0.dtd"
   xmlns="http://www.w3.org/2000/svg"
   xmlns:svg="http://www.w3.org/2000/svg">
  <defs
     id="defs3" />
  <sodipodi:namedview
     id="namedview3"
     pagecolor="#ffffff"
     bordercolor="#000000"
     borderopacity="0.25"
     inkscape:showpageshadow="2"
     inkscape:pageopacity="0.0"
     inkscape:pagecheckerboard="0"
     inkscape:deskcolor="#d1d1d1"
     inkscape:zoom="3.9790857"
     inkscape:cx="75.896832"
     inkscape:cy="68.483068"
     inkscape:window-width="2560"
     inkscape:window-height="1494"
     inkscape:window-x="-11"
     inkscape:window-y="-11"
     inkscape:window-maximized="1"
     inkscape:current-layer="svg3" />
  <path
     d="M514.9 68.6c-245.5 0-445.3 199.8-445.3 445.3s199.8 445.3 445.3 445.3 445.3-199.8 445.3-445.3c0-245.6-199.7-445.3-445.3-445.3z m399.4 445.3c0 220.2-179.2 399.4-399.4 399.4S115.5 734.1 115.5 513.9s179.2-399.4 399.4-399.4 399.4 179.2 399.4 399.4z"
     fill="#000000"
     p-id="6134"
     id="path1" />
  <path
     d="M 702.5,304.1 432.1,422.4 c -3.9,1.7 -7,4.8 -8.7,8.7 L 305.2,701.5 c -2.3,5.3 -1.9,11.1 1.3,15.9 3.2,4.8 8.4,7.7 14,7.7 2.3,0 4.6,-0.5 6.8,-1.4 L 597.7,605.4 c 3.9,-1.7 7,-4.8 8.7,-8.7 L 724.7,326.3 c 2.3,-5.3 1.9,-11.1 -1.3,-15.9 -4.5,-6.8 -13.3,-9.6 -20.9,-6.3 z M 568.16893,570.36283 C 532.28281,580.36791 378.7,647.4 378.7,647.4 c 0,0 77.11458,-192.23449 77.54377,-192.07849 L 667.6,364.5 c 0.1296,0.0533 -99.43107,205.86283 -99.43107,205.86283 z"
     fill="#000000"
     p-id="6135"
     id="path2"
     sodipodi:nodetypes="ccccssccccccccccc" />
</svg>
