<?xml version="1.0" encoding="UTF-8" standalone="no"?>
<svg
   t="1724222832365"
   class="icon"
   viewBox="0 0 1024 1024"
   version="1.1"
   p-id="6142"
   width="200"
   height="200"
   id="svg4"
   sodipodi:docname="me.svg"
   inkscape:version="1.3.2 (091e20e, 2023-11-25, custom)"
   xmlns:inkscape="http://www.inkscape.org/namespaces/inkscape"
   xmlns:sodipodi="http://sodipodi.sourceforge.net/DTD/sodipodi-0.dtd"
   xmlns="http://www.w3.org/2000/svg"
   xmlns:svg="http://www.w3.org/2000/svg">
  <defs
     id="defs4" />
  <sodipodi:namedview
     id="namedview4"
     pagecolor="#ffffff"
     bordercolor="#000000"
     borderopacity="0.25"
     inkscape:showpageshadow="2"
     inkscape:pageopacity="0.0"
     inkscape:pagecheckerboard="0"
     inkscape:deskcolor="#d1d1d1"
     inkscape:zoom="5.995"
     inkscape:cx="100.0834"
     inkscape:cy="100"
     inkscape:window-width="2560"
     inkscape:window-height="1494"
     inkscape:window-x="-11"
     inkscape:window-y="-11"
     inkscape:window-maximized="1"
     inkscape:current-layer="svg4" />
  <path
     d="m 624.38125,604.80939 c 0,-22.89097 46.73675,-55.02591 75.6959,-102.03389 21.72939,-33.16515 19.48165,-92.97724 19.48165,-92.97724 0,0 0,-58.45712 0,-124.53443 0,-198.472748 -187.65367,-207.553725 -207.55859,-207.553725 -19.90493,0 -207.55495,9.080977 -207.55495,207.553725 0,66.07731 0,124.53443 0,124.53443 0,0 -5.68017,46.26117 21.05191,92.97724 29.11605,47.0092 76.10944,79.14292 76.10944,102.03389 C 388.38288,697.24172 184.93541,769.06853 122.9437,827.68255 60.950761,886.28441 77.999791,949.44257 77.999791,949.44257 H 946.01278 c 0,0 16.95173,-63.15694 -44.69456,-121.76002 C 839.66099,769.06974 637.53201,697.24172 624.38125,604.80939 Z M 119.93333,907.93231 c 3.83624,-14.33057 12.56935,-32.16169 31.53042,-50.08646 17.67057,-16.70847 54.02975,-37.47576 92.52234,-59.46301 87.72521,-50.10836 187.15376,-106.90035 198.71115,-187.6938 l 0.41841,-2.92401 v -2.95442 c 0,-28.79008 -19.8137,-50.27013 -42.75698,-75.13883 C 387.14224,515.34607 372.1804,499.129 361.174,481.54114 342.4866,448.40154 345.65266,414.85933 345.64658,414.85933 l 0.30894,-2.5202 v -2.54087 l 0,-124.53443 c 0,-161.38378 149.04796,-166.04347 166.04347,-166.04347 16.99673,0 166.04712,4.65969 166.04712,166.04347 v 124.53443 l 0.004,0.78209 0.0219,0.68478 c 0.64586,19.50719 -2.87536,53.73905 -12.71775,68.7617 l -0.31745,0.4841 -0.30287,0.4926 c -10.98207,17.82747 -26.05581,34.25618 -39.35495,48.74974 -22.80948,24.8614 -42.50885,46.3305 -42.50885,75.05612 v 2.93739 l 0.41354,2.90942 c 11.49049,80.75939 110.33522,137.57327 197.54593,187.69745 38.225,21.97144 74.33119,42.72292 91.88864,59.41435 18.7397,17.81409 27.38767,35.73157 31.2081,50.16188 l -783.99266,0 v 0.002 z"
     fill="#000000"
     p-id="6143"
     id="path1" />
</svg>
